<svg xmlns="http://www.w3.org/2000/svg" width="20" height="20" viewBox="0 0 20 20">
    <path fill="#54595D" fill-rule="evenodd" d="M14.474 13.441c1.147-1.376 1.835-3.212 1.835-5.162A7.98 7.98 0 0 0 8.279.25 7.98 7.98 0 0 0 .25 8.28a7.98 7.98 0 0 0 8.03 8.029c1.72 0 3.211-.459 4.473-1.377l4.473 4.474c.46.459 1.262.459 1.836 0l.688-.688-5.276-5.277zM2.544 8.28c0-3.211 2.524-5.735 5.735-5.735 3.212 0 5.736 2.524 5.736 5.735 0 3.212-2.524 5.736-5.736 5.736-3.211 0-5.735-2.638-5.735-5.736z"/>
</svg>
